<?xml version="1.0" encoding="utf-8"?>
<!-- Generator: Adobe Illustrator 22.0.0, SVG Export Plug-In . SVG Version: 6.00 Build 0)  -->
<svg version="1.1" xmlns="http://www.w3.org/2000/svg" xmlns:xlink="http://www.w3.org/1999/xlink" x="0px" y="0px"
	 viewBox="0 0 2048 1050" style="enable-background:new 0 0 2048 1050;" xml:space="preserve">
<style type="text/css">
	.st0{fill:#EAE096;}
	.st1{fill:#B2CFCB;}
	.st2{fill:#E5FFFB;}
	.st3{fill:#CCDEDC;}
	
		.st4{clip-path:url(#SVGID_2_);fill:none;stroke:#CCDEDC;stroke-width:15;stroke-linecap:round;stroke-linejoin:round;stroke-miterlimit:10;}
	.st5{fill:#ACE7F2;}
	.st6{display:none;}
	.st7{display:inline;fill:#675A4E;}
	.st8{display:inline;fill:#908475;}
	.st9{display:inline;fill:#7A997A;}
	.st10{display:inline;fill:#526652;}
	.st11{display:inline;fill:#4F362E;}
	.st12{fill:#526652;}
	.st13{fill:#7A997A;}
	.st14{fill:#4F362E;}
	.st15{fill:#FFFFFF;}
	.st16{fill:#D7FAD7;}
	.st17{display:none;fill:#D7FAD7;}
	.st18{fill:#B8E6B8;}
</style>
<g id="Landscape">
	<circle class="st0" cx="932.6" cy="567.1" r="174.3"/>
	<g>
		<polygon class="st1" points="1205.9,613.2 1160,463.2 1073.9,463.2 1028.1,613.2 		"/>
		<polygon class="st2" points="1066.1,488.9 1073.9,463.2 1160,463.2 1167.9,488.9 		"/>
	</g>
	<g>
		<polygon class="st3" points="1370,613.2 1439.7,385.2 1525.8,385.2 1595.6,613.2 		"/>
		<polygon class="st2" points="1520.1,410.9 1533.7,410.9 1525.8,385.2 1439.7,385.2 1431.9,410.9 1491.7,410.9 1505.9,425.1 		"/>
	</g>
	<g>
		<polygon class="st3" points="602.3,613.2 676.7,370 768.5,370 842.9,613.2 		"/>
		<polygon class="st2" points="762.4,397.4 776.9,397.4 768.5,370 676.7,370 668.3,397.4 732.1,397.4 747.2,412.6 		"/>
	</g>
	<g>
		<polygon class="st3" points="1332.9,613.2 1263.1,385.2 1177.1,385.2 1107.3,613.2 		"/>
		<polygon class="st2" points="1182.8,410.9 1169.2,410.9 1177.1,385.2 1263.1,385.2 1271,410.9 1211.2,410.9 1197,425.1 		"/>
	</g>
	<g>
		<polygon class="st3" points="651.3,613.2 567.7,340 464.6,340 381,613.2 		"/>
		<polygon class="st2" points="462,370.8 455.2,370.8 464.6,340 567.7,340 577.1,370.8 496.1,370.8 479.1,387.8 		"/>
	</g>
	<g>
		<polygon class="st1" points="1172.4,613.2 1276.8,272 1405.6,272 1510,613.2 		"/>
		<polygon class="st2" points="1266.5,305.5 1309.5,305.5 1325.5,321.5 1341.3,305.7 1415.9,305.7 1405.6,272 1276.8,272 		"/>
		<polygon class="st2" points="1308.2,340 1301.7,346.5 1295.2,340 		"/>
		<polygon class="st2" points="1334.3,366.1 1327.8,372.6 1321.3,366.1 		"/>
		<polygon class="st2" points="1367.4,333 1360.9,339.5 1354.4,333 		"/>
	</g>
	<g>
		<g>
			<polygon class="st1" points="464.4,613.2 568.8,272 652.1,272 756.5,613.2 			"/>
		</g>
		<g>
			<polygon class="st1" points="574.2,613.2 638.8,402.2 718.4,402.2 782.9,613.2 			"/>
		</g>
		<g>
			<polygon class="st1" points="436.9,613.2 501.5,402.2 581,402.2 645.6,613.2 			"/>
		</g>
		<polygon class="st2" points="621,296.8 659.6,296.8 652.1,272 568.8,272 561.2,296.8 599.9,296.8 610.4,307.3 		"/>
		<polygon class="st2" points="587.3,326.9 580.8,333.4 574.2,326.9 		"/>
		<polygon class="st2" points="605.3,344.9 598.8,351.4 592.2,344.9 		"/>
		<polygon class="st2" points="617.1,333.1 610.6,339.6 604,333.1 		"/>
	</g>
	<path class="st2" d="M339,655.2L339,655.2c0,23.2,18.8,42,42,42h95c9.9,0,17.9,8,17.9,17.9v0c0,9.9-8,17.9-17.9,17.9h-42.1
		c-15.4,0-27.9,12.5-27.9,27.9v0c0,15.4,12.5,27.9,27.9,27.9h1099.8c20.7,0,37.4-16.7,37.4-37.4v0c0-20.7-16.7-37.4-37.4-37.4H1506
		c-8.1,0-14.7-6.6-14.7-14.7v0c0-8.1,6.6-14.7,14.7-14.7h89.6c19.7,0,35.7-16,35.7-35.7v0c0-19.7-16-35.7-35.7-35.7l-1214.6,0
		C357.8,613.2,339,632,339,655.2z"/>
	<g>
		<defs>
			<path id="SVGID_1_" d="M339,655.2L339,655.2c0,23.2,18.8,42,42,42h95c9.9,0,17.9,8,17.9,17.9v0c0,9.9-8,17.9-17.9,17.9h-42.1
				c-15.4,0-27.9,12.5-27.9,27.9v0c0,15.4,12.5,27.9,27.9,27.9h1099.8c20.7,0,37.4-16.7,37.4-37.4v0c0-20.7-16.7-37.4-37.4-37.4
				H1506c-8.1,0-14.7-6.6-14.7-14.7v0c0-8.1,6.6-14.7,14.7-14.7h89.6c19.7,0,35.7-16,35.7-35.7v0c0-19.7-16-35.7-35.7-35.7
				l-1214.6,0C357.8,613.2,339,632,339,655.2z"/>
		</defs>
		<clipPath id="SVGID_2_">
			<use xlink:href="#SVGID_1_"  style="overflow:visible;"/>
		</clipPath>
		<path class="st4" d="M476,704.8h368.7c17.3,0,33.9,6.9,46.1,19.1l0,0c12.2,12.2,28.8,19.1,46.1,19.1h85.4
			c12.9,0,25.3,5.1,34.4,14.3v0c9.1,9.1,21.5,14.3,34.4,14.3h486.8"/>
	</g>
	<path class="st5" d="M1497.9,576.5c-4.9,10.5-15.5,17.8-27.9,17.8c-12.3,0-23-7.3-27.9-17.8c-4.9,10.5-15.5,17.8-27.9,17.8
		s-23-7.3-27.9-17.8c-4.9,10.5-15.5,17.8-27.9,17.8s-23-7.3-27.9-17.8c-4.9,10.5-15.5,17.8-27.9,17.8s-23-7.3-27.9-17.8
		c-4.9,10.5-15.5,17.8-27.9,17.8s-23-7.3-27.9-17.8c-4.9,10.5-15.5,17.8-27.9,17.8s-23-7.3-27.9-17.8c-4.9,10.5-15.5,17.8-27.9,17.8
		s-23-7.3-27.9-17.8c-4.9,10.5-15.5,17.8-27.9,17.8s-23-7.3-27.9-17.8c-4.9,10.5-15.5,17.8-27.9,17.8s-23-7.3-27.9-17.8
		c-4.9,10.5-15.5,17.8-27.9,17.8s-23-7.3-27.9-17.8c-4.9,10.5-15.5,17.8-27.9,17.8s-23-7.3-27.9-17.8c-4.9,10.5-15.5,17.8-27.9,17.8
		s-23-7.3-27.9-17.8c-4.9,10.5-15.5,17.8-27.9,17.8s-23-7.3-27.9-17.8c-4.9,10.5-15.5,17.8-27.9,17.8s-23-7.3-27.9-17.8
		c-4.9,10.5-15.5,17.8-27.9,17.8s-23-7.3-27.9-17.8c-4.9,10.5-15.5,17.8-27.9,17.8s-23-7.3-27.9-17.8c-4.9,10.5-15.5,17.8-27.9,17.8
		c-12.4,0-23-7.3-27.9-17.8c-5.7,21.2-25,36.7-48,36.7h1043.7C1522.9,613.2,1503.6,597.6,1497.9,576.5z"/>
	<g class="st6">
		<polygon class="st7" points="567.9,762.9 536.3,762.9 536.3,747.4 529.6,743.9 574.6,743.9 567.9,747.4 		"/>
		<rect x="538.8" y="754.3" class="st8" width="7.1" height="8.6"/>
		<rect x="548.5" y="754.3" class="st8" width="7.1" height="8.6"/>
		<rect x="558.2" y="754.3" class="st8" width="7.1" height="8.6"/>
		<rect x="538.8" y="748.4" class="st8" width="7.1" height="3.3"/>
		<rect x="548.5" y="748.4" class="st8" width="7.1" height="3.3"/>
		<rect x="558.2" y="748.4" class="st8" width="7.1" height="3.3"/>
		<path class="st9" d="M566.6,739.6l-2.1-3.2h-24.7l-2.1,3.2l-7.9,5.4c0,0.8,0.7,1.5,1.5,1.5s1.5-0.7,1.5-1.5h0.8
			c0,0.8,0.7,1.5,1.5,1.5c0.8,0,1.5-0.7,1.5-1.5h0.8c0,0.8,0.7,1.5,1.5,1.5c0.8,0,1.5-0.7,1.5-1.5h0.8c0,0.8,0.7,1.5,1.5,1.5
			c0.8,0,1.5-0.7,1.5-1.5h0.8c0,0.8,0.7,1.5,1.5,1.5s1.5-0.7,1.5-1.5h0.8c0,0.8,0.7,1.5,1.5,1.5c0.8,0,1.5-0.7,1.5-1.5h0.8
			c0,0.8,0.7,1.5,1.5,1.5c0.8,0,1.5-0.7,1.5-1.5h0.8c0,0.8,0.7,1.5,1.5,1.5s1.5-0.7,1.5-1.5h0.8c0,0.8,0.7,1.5,1.5,1.5
			c0.8,0,1.5-0.7,1.5-1.5h0.8c0,0.8,0.7,1.5,1.5,1.5c0.8,0,1.5-0.7,1.5-1.5h0.8c0,0.8,0.7,1.5,1.5,1.5c0.8,0,1.5-0.7,1.5-1.5h0.8
			c0,0.8,0.7,1.5,1.5,1.5s1.5-0.7,1.5-1.5L566.6,739.6z"/>
		<path class="st10" d="M564.4,736.4l2.1,3.2l7.9,5.4l0.8-1l-7.7-5.3l-2-3l-0.4-0.6l0,0h-0.7h-24.7h-0.7l-0.4,0.6l-2,3l-7.7,5.3
			l0.8,1l7.9-5.4l2.1-3.2H564.4"/>
		<rect x="536.3" y="762.9" class="st11" width="31.7" height="0.9"/>
	</g>
	<g class="st6">
		<polygon class="st7" points="1428.8,728.9 1397.1,728.9 1397.1,713.4 1390.5,709.9 1435.5,709.9 1428.8,713.4 		"/>
		<rect x="1399.7" y="720.4" class="st8" width="7.1" height="8.6"/>
		<rect x="1409.4" y="720.4" class="st8" width="7.1" height="8.6"/>
		<rect x="1419.1" y="720.4" class="st8" width="7.1" height="8.6"/>
		<rect x="1399.7" y="714.4" class="st8" width="7.1" height="3.3"/>
		<rect x="1409.4" y="714.4" class="st8" width="7.1" height="3.3"/>
		<rect x="1419.1" y="714.4" class="st8" width="7.1" height="3.3"/>
		<path class="st9" d="M1427.4,705.6l-2.1-3.2h-24.7l-2.1,3.2l-7.9,5.4c0,0.8,0.7,1.5,1.5,1.5s1.5-0.7,1.5-1.5h0.8
			c0,0.8,0.7,1.5,1.5,1.5c0.8,0,1.5-0.7,1.5-1.5h0.8c0,0.8,0.7,1.5,1.5,1.5s1.5-0.7,1.5-1.5h0.8c0,0.8,0.7,1.5,1.5,1.5
			s1.5-0.7,1.5-1.5h0.8c0,0.8,0.7,1.5,1.5,1.5c0.8,0,1.5-0.7,1.5-1.5h0.8c0,0.8,0.7,1.5,1.5,1.5s1.5-0.7,1.5-1.5h0.8
			c0,0.8,0.7,1.5,1.5,1.5s1.5-0.7,1.5-1.5h0.8c0,0.8,0.7,1.5,1.5,1.5s1.5-0.7,1.5-1.5h0.8c0,0.8,0.7,1.5,1.5,1.5
			c0.8,0,1.5-0.7,1.5-1.5h0.8c0,0.8,0.7,1.5,1.5,1.5s1.5-0.7,1.5-1.5h0.8c0,0.8,0.7,1.5,1.5,1.5s1.5-0.7,1.5-1.5h0.8
			c0,0.8,0.7,1.5,1.5,1.5c0.8,0,1.5-0.7,1.5-1.5L1427.4,705.6z"/>
		<path class="st10" d="M1425.3,702.4l2.1,3.2l7.9,5.4l0.8-1l-7.7-5.3l-2-3l-0.4-0.6l0,0h-0.7h-24.7h-0.7l-0.4,0.6l-2,3l-7.7,5.3
			l0.8,1l7.9-5.4l2.1-3.2H1425.3"/>
		<rect x="1397.1" y="728.9" class="st11" width="31.7" height="0.9"/>
	</g>
	<g class="st6">
		<polygon class="st7" points="824.7,667.2 793,667.2 793,651.7 786.4,648.1 831.4,648.1 824.7,651.7 		"/>
		<rect x="795.6" y="658.6" class="st8" width="7.1" height="8.6"/>
		<rect x="805.3" y="658.6" class="st8" width="7.1" height="8.6"/>
		<rect x="815" y="658.6" class="st8" width="7.1" height="8.6"/>
		<rect x="795.6" y="652.7" class="st8" width="7.1" height="3.3"/>
		<rect x="805.3" y="652.7" class="st8" width="7.1" height="3.3"/>
		<rect x="815" y="652.7" class="st8" width="7.1" height="3.3"/>
		<path class="st9" d="M823.3,643.8l-2.1-3.2h-24.7l-2.1,3.2l-7.9,5.4c0,0.8,0.7,1.5,1.5,1.5c0.8,0,1.5-0.7,1.5-1.5h0.8
			c0,0.8,0.7,1.5,1.5,1.5s1.5-0.7,1.5-1.5h0.8c0,0.8,0.7,1.5,1.5,1.5s1.5-0.7,1.5-1.5h0.8c0,0.8,0.7,1.5,1.5,1.5
			c0.8,0,1.5-0.7,1.5-1.5h0.8c0,0.8,0.7,1.5,1.5,1.5c0.8,0,1.5-0.7,1.5-1.5h0.8c0,0.8,0.7,1.5,1.5,1.5c0.8,0,1.5-0.7,1.5-1.5h0.8
			c0,0.8,0.7,1.5,1.5,1.5c0.8,0,1.5-0.7,1.5-1.5h0.8c0,0.8,0.7,1.5,1.5,1.5c0.8,0,1.5-0.7,1.5-1.5h0.8c0,0.8,0.7,1.5,1.5,1.5
			c0.8,0,1.5-0.7,1.5-1.5h0.8c0,0.8,0.7,1.5,1.5,1.5s1.5-0.7,1.5-1.5h0.8c0,0.8,0.7,1.5,1.5,1.5c0.8,0,1.5-0.7,1.5-1.5h0.8
			c0,0.8,0.7,1.5,1.5,1.5c0.8,0,1.5-0.7,1.5-1.5L823.3,643.8z"/>
		<path class="st10" d="M821.2,640.6l2.1,3.2l7.9,5.4l0.8-1l-7.7-5.3l-2-3l-0.4-0.6l0,0h-0.7h-24.7h-0.7l-0.4,0.6l-2,3l-7.7,5.3
			l0.8,1l7.9-5.4l2.1-3.2H821.2"/>
		<rect x="793" y="667.2" class="st11" width="31.7" height="0.9"/>
	</g>
	<g>
		<polygon class="st12" points="861.4,589.1 844.3,638.1 878.6,638.1 		"/>
		<polygon class="st13" points="853.7,623 851.9,628.3 855.6,628.3 		"/>
		<polygon class="st13" points="868.1,627.8 866.2,633.1 869.9,633.1 		"/>
		<polygon class="st13" points="864.3,613 862.5,618.3 866.2,618.3 		"/>
		<rect x="858.6" y="638.1" class="st14" width="5.7" height="7.2"/>
		<polygon class="st15" points="854.7,608.2 861.4,589.1 867.4,606.1 863.4,606.1 861.4,611.7 860.2,608.2 860.2,608.2 		"/>
	</g>
	<g>
		<polygon class="st12" points="539.7,705.9 522.6,754.9 556.9,754.9 		"/>
		<polygon class="st13" points="533.9,732.1 532,737.4 535.8,737.4 		"/>
		<polygon class="st15" points="544.3,719.2 539.7,705.9 535.6,717.7 538.3,717.7 539.7,721.6 540.6,719.2 540.6,719.2 		"/>
		<polygon class="st13" points="541.2,738.9 539.3,744.2 543,744.2 		"/>
		<polygon class="st13" points="544.9,724.3 543,729.6 546.7,729.6 		"/>
		<rect x="536.9" y="754.9" class="st14" width="5.7" height="7.2"/>
	</g>
	<g>
		<polygon class="st12" points="1524.8,589.8 1507.7,638.8 1542,638.8 		"/>
		<polygon class="st13" points="1531.9,623.4 1530,628.7 1533.7,628.7 		"/>
		<polygon class="st15" points="1533.2,613.6 1524.8,589.8 1517.4,611 1522.4,611 1524.8,618.1 1526.4,613.6 1526.4,613.6 		"/>
		<polygon class="st13" points="1515.9,630.1 1514,635.4 1517.8,635.4 		"/>
		<polygon class="st13" points="1520.3,618.1 1518.5,623.4 1522.2,623.4 		"/>
		<rect x="1522" y="638.8" class="st14" width="5.7" height="7.2"/>
	</g>
	<path class="st15" d="M662.5,716.6h16.9c3,0,5.4-2.4,5.4-5.4l0,0c0-3,2.4-5.4,5.4-5.4h20.1c3,0,5.4,2.4,5.4,5.4l0,0
		c0,3,2.4,5.4,5.4,5.4h16.4c2.1,0,3.7,1.7,3.7,3.7l0,0c0,2.1,1.7,3.7,3.7,3.7h18.9c3.6,0,6.6,3,6.6,6.6l0,0c0,0.7-0.6,1.3-1.3,1.3
		H649.7c-0.7,0-1.3-0.6-1.3-1.3l0,0C648.4,722.9,654.7,716.6,662.5,716.6z"/>
	<path class="st15" d="M1072.3,723.6h110.6c0.7,0,1.2-0.5,1.2-1.2l0,0c0-6.1-4.9-11-11-11h-12c-2.8,0-5-2.3-5-5l0,0c0-2.8-2.3-5-5-5
		h-39.8c-1.5,0-2.7,1.2-2.7,2.7l0,0c0,1.5-1.2,2.7-2.7,2.7h-17.5c-2.1,0-3.8,1.7-3.8,3.8l0,0c0,2.1-1.7,3.8-3.8,3.8h-1.6
		c-4.5,0-8.1,3.6-8.1,8.1l0,0C1071.1,723.1,1071.7,723.6,1072.3,723.6z"/>
	<path class="st15" d="M932.6,669.8L932.6,669.8c0,0.7,0.5,1.2,1.2,1.2h68.7c0.7,0,1.2-0.5,1.2-1.2l0,0c0-3.8-3.1-6.9-6.9-6.9h-14.9
		c-2.8,0-5.1-2.3-5.1-5.1l0,0c0-2.8-2.3-5.1-5.1-5.1h-19.5c-2.8,0-5.1,2.3-5.1,5.1l0,0c0,2.8-2.3,5.1-5.1,5.1h-2.4
		C935.7,662.9,932.6,666,932.6,669.8z"/>
</g>
<g id="Logo">
	<g>
		<path class="st16" d="M648.4,519.7c-2.3,1.4-5.6,2.1-9.8,2.1c-6.6,0-11.7-2.5-15.1-7.5c-3.4-5-5.2-11.6-5.2-19.8
			c0-8.2,1.7-14.8,5.2-19.8c3.4-5,8.7-7.5,15.8-7.5c6.1,0,10.8,2.4,13.9,7.3l36.8,0c-3.2-11-9.1-19.6-17.7-25.7
			c-9.2-6.6-20.5-9.9-33.8-9.9c-16,0-29.1,5-39.1,15.1c-10.1,10.1-15.1,23.6-15.1,40.5c0,16.9,5,30.4,15.1,40.6
			c10.1,10.1,23.1,15.2,39.1,15.2c13,0,24.2-3.5,33.6-10.3c8.9-6.6,15-15.2,18.1-26.2l-36.5,0C652.1,516.6,650.3,518.5,648.4,519.7z
			"/>
		<path class="st16" d="M732.5,460.4l0-20.3l-33.4,0l0,108.9l33.4,0l0-49.8c0-9.1,1.9-15.5,5.8-19.1c3.8-3.6,9.6-5.5,17.3-5.5l8.2,0
			l0-35.7C750.7,438.9,740.3,446.1,732.5,460.4z"/>
		<path class="st16" d="M1117,430.5c4.6,0,8.6-1.6,11.8-4.8c3.2-3.2,4.8-7.2,4.8-11.9c0-4.7-1.6-8.7-4.8-11.9
			c-3.2-3.2-7.1-4.8-11.8-4.8c-4.6,0-8.6,1.6-11.8,4.8c-3.2,3.2-4.8,7.2-4.8,11.9c0,4.7,1.6,8.7,4.8,11.9
			C1108.4,428.9,1112.3,430.5,1117,430.5z"/>
		<path class="st16" d="M1052.1,440.1l0-29.2l-33.4,0l0,29.2l-10.2,0l0,27.7l10.2,0l0,45.3c0,13.1,3.3,22.4,10.1,27.8
			c6.7,5.4,16.2,8.1,28.4,8.1l33.1,0l0-28.3l-28,0c-6.8,0-10.2-2.5-10.2-7.6l0-45.3l48.3,0l0,81.2l33.4,0l0-108.9L1052.1,440.1z"/>
		<polygon class="st17" points="1225.4,440.1 1200.6,521.1 1175.8,440.1 1140.3,440.1 1178.9,549 1222.2,549 1260.9,440.1 		"/>
		<polygon class="st16" points="1200.6,521.1 1175.8,440.1 1140.3,440.1 1178.9,549 1192,549 		"/>
		<polygon class="st18" points="1225.4,440.1 1192,549 1222.2,549 1260.9,440.1 		"/>
		<path class="st18" d="M1459.1,500.3c-3.1-4.2-6.1-7.1-11.4-9.1c-8.8-3.8-18.2-6-29.5-8.4c-10.6-2.2-16-5.1-16-10
			c0-5.3,4.4-8.6,13.1-8.6c4.4,0,7.7,1.2,10,2.7c2.2,1.4,3.5,3.9,3.9,7.7l34.2,0c-0.5-11.1-5.1-19.8-13.7-26.2
			c-8.6-6.4-19.9-9.6-33.9-9.6c-14,0-25.1,3.3-33.3,9.8c-8.2,6.5-12.3,14.6-12.3,24.2c0,7,2.1,12.7,6.3,17.1
			c4.2,4.4,9.4,7.4,15.4,9.2c6.1,1.8,12.1,3.3,18.1,4.4c7.4,1.4,21.7,3,21.7,11.1c0,2.9-1.3,5.2-3.8,7c-2.5,1.8-5.8,2.7-9.7,2.7
			c-9.1,0-13.1-3.9-14.1-10.5l-34.2,0c0,12.9,5.6,21.4,14.4,27.4c8.8,6.1,19.9,9.1,33.2,9.1c13.3,0,24.3-3.2,33-9.7
			c8.7-6.4,13.1-14.7,13.1-24.9C1463.7,509.7,1462.1,504.5,1459.1,500.3z"/>
		<path class="st16" d="M861.1,453.7c-10.5-9.9-23.8-14.8-39.8-14.8c-16,0-29.1,5-39.1,15C772,464,767,477.4,767,494.3
			c0,16.9,5.1,30.5,15.2,40.7c10.2,10.2,23.2,15.3,39,15.3c12.9,0,24-3.3,33.4-10.1c9.4-6.7,15.6-15.5,18.7-26.4l-34.1,0
			c-1,1.6-2.2,3-3.7,4.2c-3.7,3.2-8.2,4.9-13.7,4.9c-5.4,0-10.1-1.6-14-4.9c-3.9-3.2-6.2-7.4-6.7-12.6c0,0,0,0,0,0l75,0
			c0.5-3.3,0.8-6.8,0.8-10.5C876.9,477.4,871.6,463.6,861.1,453.7z M801.3,484.6c0.9-5.5,3.2-10,6.9-13.4c3.7-3.5,8.2-5.2,13.5-5.2
			c5.4,0,10,1.7,13.9,5.2c3.9,3.5,6.1,7.9,6.7,13.4L801.3,484.6z"/>
		<path class="st18" d="M1348.6,453.7c-10.5-9.9-23.8-14.8-39.8-14.8c-16,0-29.1,5-39.1,15c-10.1,10-15.1,23.5-15.1,40.4
			c0,16.9,5.1,30.5,15.2,40.7c10.2,10.2,23.2,15.3,39,15.3c12.9,0,24-3.3,33.4-10.1c9.4-6.7,15.6-15.5,18.7-26.4l-34.1,0
			c-1,1.6-2.2,3-3.7,4.2c-3.7,3.2-8.2,4.9-13.7,4.9c-5.4,0-10.1-1.6-14-4.9c-3.9-3.2-6.2-7.4-6.7-12.6c0,0,0,0,0,0l75,0
			c0.5-3.3,0.8-6.8,0.8-10.5C1364.4,477.4,1359.1,463.6,1348.6,453.7z M1288.9,484.6c0.9-5.5,3.2-10,6.9-13.4
			c3.7-3.5,8.2-5.2,13.5-5.2c5.4,0,10,1.7,13.9,5.2c3.9,3.5,6.1,7.9,6.7,13.4L1288.9,484.6z"/>
		<path class="st16" d="M965.6,440.1l0,12.3c-7.3-9-17.5-13.5-30.5-13.5c-13.9,0-25.7,5.2-35.3,15.7c-9.7,10.5-14.5,23.9-14.5,40.1
			c0,16.3,4.8,29.6,14.5,40c9.7,10.4,21.3,15.6,34.8,15.6c12.8,0,23.1-5.1,31-15.2l0,13.8l33.4,0l0-108.9L965.6,440.1z M940.4,521.3
			c-6,0-11.4-2.3-16.1-6.9c-4.7-4.6-7-11.2-7-19.7c0-8.6,2.3-15.2,7-19.8c4.7-4.7,10-7,16.1-7c6,0,23.1,0.7,23.1,26.6
			C963.4,520.4,946.4,521.3,940.4,521.3z"/>
	</g>
	<g>
		<polygon class="st2" points="561.2,491.4 554.7,497.9 548.2,491.4 		"/>
		<polygon class="st2" points="661.7,472 655.1,478.5 648.6,472 		"/>
		<polygon class="st2" points="646.5,456.8 640,463.3 633.4,456.8 		"/>
		<polygon class="st2" points="688.9,444.8 682.4,451.3 675.9,444.8 		"/>
	</g>
	<g>
		<polygon class="st2" points="1430.6,462.4 1424.1,469 1417.6,462.4 		"/>
		<polygon class="st2" points="1283.9,468.8 1277.4,475.4 1270.9,468.8 		"/>
		<polygon class="st2" points="1308.5,522 1301.9,528.5 1295.4,522 		"/>
		<polygon class="st2" points="1413,480.1 1406.5,486.6 1399.9,480.1 		"/>
	</g>
	<g>
	</g>
	<g>
	</g>
	<g>
	</g>
	<g>
	</g>
	<g>
	</g>
	<g>
	</g>
</g>
</svg>
