<?xml version="1.0" encoding="utf-8"?>
<!-- Generator: Adobe Illustrator 21.1.0, SVG Export Plug-In . SVG Version: 6.00 Build 0)  -->
<svg version="1.1" id="Calque_1" xmlns="http://www.w3.org/2000/svg" xmlns:xlink="http://www.w3.org/1999/xlink" x="0px" y="0px"
	 viewBox="0 0 96.3 119" style="enable-background:new 0 0 96.3 119;" xml:space="preserve">
<style type="text/css">
	.st0{fill:#FFFFFF;}
	.st1{fill:#0078BE;}
	.st2{fill:#C62B44;}
	.st3{fill:#289548;}
	.st4{fill:#E8B234;}
	.st5{fill:#2B2C2D;}
</style>
<g>
	<path class="st0" d="M48.1,0C21.6,0,0,21.6,0,48.1C0,73.9,15.5,86.4,48.1,119c32.7-32.7,48.1-45.1,48.1-70.9
		C96.3,21.6,74.7,0,48.1,0z"/>
	<g>
		<g>
			<g>
				<g>
					<g id="The_Olympic_Rings_77_">
						<path id="Blue_Ring_77_" class="st1" d="M42.9,70.6c0-2.5-2-4.5-4.5-4.5c-2.5,0-4.5,2-4.5,4.5c0,2.5,2,4.5,4.5,4.5
							c0.1,0,0.3,0,0.4,0c0-0.1,0-0.2,0-0.4c0-0.1,0-0.3,0-0.4c-0.1,0-0.3,0-0.4,0c-2.1,0-3.7-1.7-3.7-3.7c0-2.1,1.7-3.7,3.7-3.7
							c2.1,0,3.7,1.7,3.7,3.7c0,1.7-1.1,3.1-2.6,3.5c0,0.2,0,0.4,0,0.6c0,0.1,0,0.2,0,0.2C41.5,74.5,42.9,72.7,42.9,70.6z"/>
						<path id="Red_Ring_77_" class="st2" d="M62.3,70.6c0,2.5-2,4.5-4.5,4.5c-2.3,0-4.3-1.8-4.5-4.1c0.3,0,0.5,0.1,0.8,0.2
							c0.3,1.8,1.8,3.2,3.7,3.2c2.1,0,3.7-1.7,3.7-3.7c0-2.1-1.7-3.7-3.7-3.7c-2,0-3.6,1.5-3.7,3.5c-0.2-0.1-0.5-0.1-0.7-0.1
							c0.2-2.3,2.1-4.1,4.5-4.1C60.3,66.2,62.3,68.2,62.3,70.6z M53.3,70.6"/>
						<path id="Green_Ring_77_" class="st3" d="M57.4,74.7 M53,71c1.9,0,3.4,1.4,3.7,3.2c0.2,0.1,0.5,0.1,0.8,0.2
							c-0.2-2.3-2.1-4.1-4.4-4.1c-0.1,0-0.3,0-0.4,0c0,0.1,0,0.2,0,0.4c0,0.1,0,0.3,0,0.4C52.7,71,52.8,71,53,71z M56.7,75
							c-0.1,1.9-1.7,3.5-3.7,3.5c-2.1,0-3.7-1.7-3.7-3.7c0-1.7,1.1-3.1,2.6-3.5c0-0.2,0-0.4,0-0.6c0-0.1,0-0.2,0-0.2
							c-1.9,0.5-3.3,2.2-3.3,4.3c0,2.5,2,4.5,4.5,4.5c2.3,0,4.3-1.8,4.5-4.1C57.2,75.1,56.9,75,56.7,75z"/>
						<path id="Yellow_Ring_77_" class="st4" d="M47.8,74.7 M42.9,71c0-0.1,0-0.3,0-0.4c0-0.1,0-0.2,0-0.4c0.1,0,0.3,0,0.4,0
							c2.3,0,4.3,1.8,4.4,4.1c-0.3,0-0.5-0.1-0.8-0.2c-0.3-1.8-1.8-3.2-3.7-3.2C43.2,71,43,71,42.9,71z M47.7,75.1
							c-0.2,2.3-2.1,4.1-4.5,4.1c-2.5,0-4.5-2-4.5-4.5c0-2.1,1.4-3.8,3.3-4.3c0,0.1,0,0.2,0,0.2c0,0.2,0,0.4,0,0.6
							c-1.5,0.5-2.6,1.9-2.6,3.5c0,2.1,1.7,3.7,3.7,3.7c2,0,3.6-1.5,3.7-3.5C47.3,75,47.5,75.1,47.7,75.1z"/>
						<path id="Black_Ring_77_" class="st5" d="M43.7,70.6 M48.1,66.2c-2.3,0-4.3,1.8-4.5,4.1c0.3,0,0.5,0.1,0.7,0.1
							c0.1-1.9,1.7-3.5,3.7-3.5c2.1,0,3.7,1.7,3.7,3.7c0,1.7-1.1,3.1-2.6,3.5c0,0.2,0,0.4,0,0.6c0,0.1,0,0.2,0,0.2
							c1.9-0.5,3.3-2.2,3.3-4.3C52.6,68.2,50.6,66.2,48.1,66.2z M48.1,74.4c-1.9,0-3.4-1.4-3.7-3.2c-0.2-0.1-0.5-0.1-0.8-0.2
							c0.2,2.3,2.1,4.1,4.5,4.1c0.1,0,0.3,0,0.4,0c0-0.1,0-0.2,0-0.4c0-0.1,0-0.3,0-0.4C48.4,74.4,48.3,74.4,48.1,74.4z"/>
					</g>
					<g>
						<g>
							<rect x="31.2" y="31.8" class="st5" width="1.9" height="14.9"/>
							<rect x="46.3" y="31.8" class="st3" width="1.9" height="14.9"/>
						</g>
						<g>
							<rect x="27.2" y="28.1" class="st1" width="25" height="2.1"/>
							<rect x="27.2" y="48.4" class="st2" width="25" height="2.1"/>
						</g>
						<g>
							<polygon class="st5" points="60.1,16.8 60.1,25.5 61,26.6 61.8,25.5 61.8,16.8 							"/>
							<polygon class="st4" points="51.4,24.4 59.6,27.1 61,26.6 60.1,25.5 51.9,22.8 							"/>
							<polygon class="st2" points="55.9,35.1 61,28.1 61,26.6 59.6,27.1 54.5,34.1 							"/>
							<polygon class="st1" points="67.4,34.1 62.3,27.1 61,26.6 61,28.1 66.1,35.1 							"/>
							<polygon class="st3" points="70,22.8 61.8,25.5 61,26.6 62.3,27.1 70.5,24.4 							"/>
						</g>
					</g>
				</g>
			</g>
			<g>
				<path class="st5" d="M16.9,56.7h1.9c0.6,0,1,0.1,1.3,0.4c0.3,0.3,0.5,0.7,0.5,1.2c0,0.3,0,0.5-0.1,0.7c-0.1,0.2-0.2,0.4-0.4,0.5
					c-0.2,0.1-0.3,0.3-0.6,0.3c-0.2,0.1-0.4,0.1-0.7,0.1h-1v1.7h-1V56.7z M18.6,59.1c0.3,0,0.6-0.1,0.7-0.2c0.2-0.2,0.3-0.3,0.3-0.6
					c0-0.3-0.1-0.5-0.2-0.6c-0.2-0.1-0.4-0.2-0.7-0.2h-0.8v1.6H18.6z"/>
				<path class="st5" d="M21.7,63.3c-0.1,0-0.5,0-0.6-0.1l0.2-0.8c0.1,0,0.3,0,0.3,0c0.2,0,0.3,0,0.4-0.1c0.1-0.1,0.2-0.2,0.3-0.4
					l0.2-0.3L20.9,58H22l1,2.5l0.9-2.5H25l-1.7,4.1c-0.1,0.2-0.2,0.4-0.3,0.6c-0.1,0.2-0.2,0.3-0.4,0.4c-0.1,0.1-0.3,0.2-0.4,0.2
					C22,63.3,21.8,63.3,21.7,63.3z"/>
				<path class="st5" d="M26.8,61.8c-0.3,0-0.6,0-0.8-0.1c-0.2-0.1-0.4-0.2-0.6-0.4c-0.2-0.2-0.3-0.4-0.4-0.6
					c-0.1-0.2-0.1-0.5-0.1-0.8v-0.1c0-0.3,0.1-0.6,0.2-0.8c0.1-0.2,0.2-0.4,0.4-0.6c0.2-0.2,0.4-0.3,0.6-0.4
					c0.2-0.1,0.4-0.1,0.7-0.1c0.5,0,0.9,0.2,1.3,0.5c0.3,0.3,0.5,0.8,0.5,1.3v0.5H26c0,0.1,0.1,0.2,0.1,0.3c0.1,0.1,0.1,0.2,0.2,0.2
					c0.1,0.1,0.2,0.1,0.3,0.1c0.1,0,0.2,0,0.3,0c0.3,0,0.5,0,0.7-0.1c0.2-0.1,0.4-0.1,0.5-0.2l0.3,0.8c-0.1,0.1-0.1,0.1-0.2,0.2
					c-0.1,0.1-0.2,0.1-0.3,0.2c-0.1,0-0.3,0.1-0.4,0.1C27.2,61.8,27,61.8,26.8,61.8z M26.7,58.7c-0.1,0-0.1,0-0.2,0
					c-0.1,0-0.2,0.1-0.2,0.1c-0.1,0.1-0.1,0.1-0.2,0.2c-0.1,0.1-0.1,0.2-0.1,0.3h1.5c0-0.1,0-0.2-0.1-0.3c0-0.1-0.1-0.2-0.2-0.2
					c-0.1-0.1-0.1-0.1-0.2-0.1C26.9,58.7,26.8,58.7,26.7,58.7z"/>
				<path class="st5" d="M30.8,61.8c-0.3,0-0.5,0-0.8-0.1c-0.2-0.1-0.4-0.2-0.6-0.4c-0.2-0.2-0.3-0.4-0.4-0.6
					c-0.1-0.2-0.1-0.5-0.1-0.8v-0.1c0-0.3,0.1-0.6,0.2-0.8c0.1-0.2,0.3-0.5,0.4-0.6c0.2-0.2,0.4-0.3,0.6-0.4
					c0.2-0.1,0.5-0.1,0.7-0.1c0.3,0,0.5,0,0.8,0.1c0.2,0.1,0.4,0.2,0.6,0.4c0.2,0.2,0.3,0.4,0.4,0.6c0.1,0.2,0.2,0.5,0.2,0.8v0.1
					c0,0.3-0.1,0.6-0.2,0.8c-0.1,0.2-0.3,0.4-0.4,0.6c-0.2,0.2-0.4,0.3-0.6,0.4C31.3,61.8,31.1,61.8,30.8,61.8z M30.8,61
					c0.1,0,0.2,0,0.3-0.1c0.1,0,0.2-0.1,0.3-0.2c0.1-0.1,0.1-0.2,0.2-0.3c0-0.1,0.1-0.3,0.1-0.5v-0.2c0-0.2,0-0.3-0.1-0.5
					c-0.1-0.1-0.1-0.2-0.2-0.3c-0.1-0.1-0.2-0.1-0.3-0.2c-0.1,0-0.2-0.1-0.3-0.1c-0.1,0-0.2,0-0.3,0.1c-0.1,0-0.2,0.1-0.3,0.2
					c-0.1,0.1-0.1,0.2-0.2,0.3c-0.1,0.1-0.1,0.3-0.1,0.5v0.2c0,0.2,0,0.4,0.1,0.5c0.1,0.1,0.1,0.2,0.2,0.3c0.1,0.1,0.2,0.1,0.3,0.2
					C30.6,60.9,30.7,61,30.8,61z"/>
				<path class="st5" d="M33.3,58h1v0.4c0.1-0.1,0.2-0.2,0.3-0.2c0.1-0.1,0.2-0.1,0.3-0.2c0.1,0,0.2-0.1,0.3-0.1c0.1,0,0.2,0,0.3,0
					c0.2,0,0.4,0,0.5,0.1c0.2,0.1,0.3,0.1,0.4,0.3c0.1,0.1,0.2,0.3,0.3,0.4c0.1,0.2,0.1,0.4,0.1,0.6v2.4h-1v-2.3
					c0-0.2-0.1-0.3-0.2-0.4c-0.1-0.1-0.3-0.2-0.5-0.2c-0.1,0-0.1,0-0.2,0c-0.1,0-0.1,0-0.2,0.1c-0.1,0-0.1,0.1-0.2,0.1
					c-0.1,0.1-0.1,0.1-0.2,0.2v2.4h-1V58z"/>
				<path class="st5" d="M39,62.4c0.1,0,0.2,0,0.3-0.1c0.1,0,0.2-0.1,0.3-0.2c0.1-0.1,0.1-0.2,0.2-0.3c0.1-0.1,0.1-0.2,0.1-0.4v-0.3
					c-0.1,0.1-0.2,0.2-0.4,0.3c-0.2,0.1-0.4,0.1-0.7,0.1c-0.2,0-0.4,0-0.6-0.1c-0.2-0.1-0.4-0.2-0.5-0.4c-0.1-0.2-0.2-0.4-0.3-0.6
					c-0.1-0.2-0.1-0.4-0.1-0.7v-0.3c0-0.2,0-0.4,0.1-0.6c0.1-0.2,0.2-0.4,0.3-0.6c0.1-0.2,0.3-0.3,0.5-0.4c0.2-0.1,0.4-0.1,0.6-0.1
					c0.2,0,0.4,0,0.7,0.1c0.2,0.1,0.4,0.2,0.5,0.3V58h1v3.4c0,0.3,0,0.6-0.1,0.8c-0.1,0.2-0.2,0.4-0.4,0.6c-0.2,0.2-0.4,0.3-0.6,0.4
					c-0.2,0.1-0.5,0.1-0.8,0.1c-0.4,0-0.7,0-0.9-0.1c-0.3-0.1-0.5-0.1-0.6-0.3l0.3-0.8c0.1,0,0.1,0.1,0.2,0.1c0.1,0,0.2,0.1,0.3,0.1
					c0.1,0,0.2,0,0.4,0.1C38.8,62.4,38.9,62.4,39,62.4z M39.2,58.8c-0.1,0-0.3,0-0.4,0.1c-0.1,0-0.2,0.1-0.3,0.2
					c-0.1,0.1-0.1,0.2-0.2,0.3c0,0.1-0.1,0.2-0.1,0.4v0.2c0,0.3,0.1,0.5,0.2,0.7c0.2,0.2,0.4,0.3,0.6,0.3c0.2,0,0.4-0.1,0.5-0.2
					c0.1-0.1,0.2-0.2,0.3-0.4v-1c-0.1-0.2-0.2-0.3-0.3-0.3C39.5,58.8,39.3,58.8,39.2,58.8z"/>
				<path class="st5" d="M44.1,61.8c-0.3,0-0.6-0.1-0.9-0.2c-0.3-0.1-0.6-0.3-0.8-0.5c-0.2-0.2-0.4-0.5-0.5-0.8
					c-0.1-0.3-0.2-0.7-0.2-1V59c0-0.4,0.1-0.8,0.2-1.1c0.1-0.3,0.3-0.6,0.6-0.8c0.2-0.2,0.5-0.4,0.8-0.4c0.3-0.1,0.6-0.1,0.9-0.1
					c0.1,0,0.3,0,0.4,0c0.1,0,0.3,0,0.4,0.1c0.1,0,0.3,0.1,0.4,0.1c0.1,0,0.2,0.1,0.3,0.2l-0.3,0.9c-0.1-0.1-0.3-0.2-0.5-0.2
					c-0.2-0.1-0.4-0.1-0.6-0.1c-0.2,0-0.4,0-0.6,0.1c-0.2,0.1-0.3,0.2-0.5,0.3c-0.1,0.1-0.3,0.3-0.3,0.5c-0.1,0.2-0.1,0.4-0.1,0.7
					v0.2c0,0.2,0,0.4,0.1,0.6c0.1,0.2,0.2,0.4,0.3,0.5c0.1,0.1,0.3,0.3,0.5,0.3c0.2,0.1,0.4,0.1,0.6,0.1c0.1,0,0.2,0,0.3,0
					c0.1,0,0.2,0,0.4-0.1c0.1,0,0.2-0.1,0.3-0.1c0.1,0,0.2-0.1,0.3-0.2l0.3,0.9c-0.1,0.1-0.2,0.1-0.3,0.2c-0.1,0.1-0.3,0.1-0.4,0.1
					c-0.1,0-0.3,0.1-0.5,0.1C44.4,61.8,44.2,61.8,44.1,61.8z"/>
				<path class="st5" d="M46.3,56.3h1v2c0.1-0.1,0.2-0.2,0.3-0.2c0.1-0.1,0.2-0.1,0.3-0.1c0.1,0,0.2-0.1,0.3-0.1c0.1,0,0.2,0,0.3,0
					c0.2,0,0.3,0,0.5,0.1c0.2,0.1,0.3,0.1,0.4,0.3c0.1,0.1,0.2,0.3,0.3,0.4c0.1,0.2,0.1,0.4,0.1,0.6v2.4h-1v-2.2
					c0-0.2-0.1-0.4-0.2-0.5c-0.1-0.1-0.3-0.2-0.5-0.2c-0.1,0-0.1,0-0.2,0c-0.1,0-0.2,0-0.2,0.1c-0.1,0-0.2,0.1-0.2,0.1
					c-0.1,0.1-0.1,0.1-0.2,0.2v2.4h-1V56.3z"/>
				<path class="st5" d="M54,61.7h-0.9L53,61.3c-0.1,0.1-0.3,0.2-0.5,0.3c-0.2,0.1-0.4,0.1-0.7,0.1c-0.2,0-0.4,0-0.6-0.1
					c-0.2-0.1-0.4-0.2-0.5-0.4c-0.1-0.2-0.2-0.3-0.3-0.6c-0.1-0.2-0.1-0.5-0.1-0.7v-0.3c0-0.2,0-0.4,0.1-0.7
					c0.1-0.2,0.2-0.4,0.4-0.6c0.1-0.2,0.3-0.3,0.5-0.4c0.2-0.1,0.4-0.1,0.6-0.1c0.2,0,0.4,0,0.6,0.1c0.2,0.1,0.3,0.2,0.4,0.3V58h1
					V61.7z M52.2,58.7c-0.1,0-0.2,0-0.4,0.1c-0.1,0.1-0.2,0.1-0.3,0.2c-0.1,0.1-0.1,0.2-0.2,0.3c0,0.1-0.1,0.2-0.1,0.4v0.2
					c0,0.2,0,0.3,0.1,0.4c0,0.1,0.1,0.2,0.2,0.3c0.1,0.1,0.2,0.1,0.3,0.2c0.1,0,0.2,0.1,0.3,0.1c0.2,0,0.4,0,0.5-0.1
					c0.1-0.1,0.2-0.2,0.3-0.3v-1.2c-0.1-0.2-0.2-0.3-0.3-0.3C52.5,58.8,52.4,58.7,52.2,58.7z"/>
				<path class="st5" d="M54.7,58h1v0.4c0.1-0.1,0.2-0.2,0.3-0.2c0.1-0.1,0.2-0.1,0.3-0.2c0.1,0,0.2-0.1,0.3-0.1c0.1,0,0.2,0,0.3,0
					c0.2,0,0.4,0,0.5,0.1c0.2,0.1,0.3,0.1,0.4,0.3c0.1,0.1,0.2,0.3,0.3,0.4c0.1,0.2,0.1,0.4,0.1,0.6v2.4h-1v-2.3
					c0-0.2-0.1-0.3-0.2-0.4c-0.1-0.1-0.3-0.2-0.5-0.2c-0.1,0-0.1,0-0.2,0c-0.1,0-0.1,0-0.2,0.1C56,59,56,59,55.9,59.1
					c-0.1,0.1-0.1,0.1-0.2,0.2v2.4h-1V58z"/>
				<path class="st5" d="M60.5,62.4c0.1,0,0.2,0,0.3-0.1c0.1,0,0.2-0.1,0.3-0.2c0.1-0.1,0.1-0.2,0.2-0.3c0-0.1,0.1-0.2,0.1-0.4v-0.3
					c-0.1,0.1-0.2,0.2-0.5,0.3c-0.2,0.1-0.4,0.1-0.7,0.1c-0.2,0-0.4,0-0.6-0.1c-0.2-0.1-0.4-0.2-0.5-0.4c-0.1-0.2-0.2-0.4-0.3-0.6
					c-0.1-0.2-0.1-0.4-0.1-0.7v-0.3c0-0.2,0-0.4,0.1-0.6c0.1-0.2,0.2-0.4,0.3-0.6c0.1-0.2,0.3-0.3,0.5-0.4c0.2-0.1,0.4-0.1,0.6-0.1
					c0.2,0,0.4,0,0.7,0.1c0.2,0.1,0.4,0.2,0.5,0.3V58h1v3.4c0,0.3,0,0.6-0.1,0.8c-0.1,0.2-0.2,0.4-0.4,0.6c-0.2,0.2-0.4,0.3-0.6,0.4
					c-0.2,0.1-0.5,0.1-0.8,0.1c-0.4,0-0.7,0-0.9-0.1c-0.3-0.1-0.5-0.1-0.6-0.3l0.3-0.8c0.1,0,0.1,0.1,0.2,0.1c0.1,0,0.2,0.1,0.3,0.1
					c0.1,0,0.2,0,0.4,0.1C60.3,62.4,60.4,62.4,60.5,62.4z M60.6,58.8c-0.1,0-0.3,0-0.4,0.1c-0.1,0-0.2,0.1-0.3,0.2
					c-0.1,0.1-0.1,0.2-0.2,0.3c0,0.1-0.1,0.2-0.1,0.4v0.2c0,0.3,0.1,0.5,0.2,0.7c0.2,0.2,0.4,0.3,0.6,0.3c0.2,0,0.4-0.1,0.5-0.2
					c0.1-0.1,0.2-0.2,0.3-0.4v-1c-0.1-0.2-0.2-0.3-0.3-0.3C61,58.8,60.8,58.8,60.6,58.8z"/>
				<path class="st5" d="M64.1,61.3l1.7-1.8c0.1-0.2,0.3-0.3,0.4-0.4c0.1-0.1,0.2-0.2,0.2-0.3c0.1-0.1,0.1-0.2,0.1-0.3
					c0-0.1,0-0.2,0-0.3c0-0.3,0-0.5-0.2-0.6c-0.1-0.2-0.3-0.2-0.6-0.2c-0.2,0-0.4,0.1-0.5,0.2c-0.2,0.1-0.3,0.3-0.3,0.6l-0.8-0.3
					c0.1-0.3,0.1-0.5,0.3-0.6c0.1-0.2,0.3-0.3,0.4-0.4c0.2-0.1,0.3-0.2,0.5-0.2c0.2,0,0.3-0.1,0.5-0.1c0.6,0,1,0.1,1.3,0.4
					c0.3,0.3,0.5,0.7,0.5,1.2c0,0.1,0,0.3-0.1,0.4s-0.1,0.3-0.2,0.4c-0.1,0.1-0.2,0.3-0.3,0.4c-0.1,0.1-0.2,0.3-0.4,0.4l-0.9,1h1.9
					v0.9h-3.6V61.3z"/>
				<path class="st5" d="M70.2,61.8c-0.3,0-0.5,0-0.8-0.1c-0.2-0.1-0.5-0.2-0.6-0.4c-0.2-0.2-0.3-0.4-0.4-0.7
					c-0.1-0.3-0.2-0.6-0.2-1v-0.7c0-0.4,0.1-0.8,0.2-1.1c0.1-0.3,0.3-0.5,0.4-0.7c0.2-0.2,0.4-0.3,0.6-0.4c0.2-0.1,0.5-0.1,0.8-0.1
					c0.3,0,0.5,0,0.8,0.1c0.2,0.1,0.5,0.2,0.6,0.4c0.2,0.2,0.3,0.4,0.4,0.7c0.1,0.3,0.2,0.7,0.2,1.1v0.6c0,0.4-0.1,0.8-0.2,1.1
					c-0.1,0.3-0.3,0.5-0.4,0.7c-0.2,0.2-0.4,0.3-0.6,0.4C70.7,61.8,70.5,61.8,70.2,61.8z M70.2,60.9c0.3,0,0.5-0.1,0.7-0.4
					c0.1-0.2,0.2-0.6,0.2-1v-0.7c0-0.5-0.1-0.8-0.2-1.1c-0.1-0.2-0.4-0.4-0.7-0.4c-0.3,0-0.5,0.1-0.7,0.4c-0.1,0.2-0.2,0.6-0.2,1
					v0.7c0,0.4,0.1,0.8,0.2,1C69.7,60.8,69.9,60.9,70.2,60.9z"/>
				<path class="st5" d="M73.6,57.7l-1,0.2v-0.7l1.5-0.7h0.5v5.2h-1.1V57.7z"/>
				<path class="st5" d="M75.8,57.9c0-0.2,0-0.4,0.1-0.6c0.1-0.2,0.2-0.3,0.4-0.4c0.1-0.1,0.3-0.2,0.5-0.3c0.2-0.1,0.4-0.1,0.7-0.1
					c0.2,0,0.5,0,0.7,0.1c0.2,0.1,0.4,0.2,0.5,0.3c0.1,0.1,0.3,0.3,0.4,0.4c0.1,0.2,0.1,0.4,0.1,0.6c0,0.2-0.1,0.5-0.2,0.6
					c-0.1,0.2-0.3,0.3-0.5,0.5c0.3,0.1,0.5,0.3,0.6,0.5c0.2,0.2,0.2,0.5,0.2,0.8c0,0.2,0,0.4-0.1,0.6c-0.1,0.2-0.2,0.4-0.4,0.5
					c-0.2,0.1-0.4,0.2-0.6,0.3c-0.2,0.1-0.5,0.1-0.8,0.1c-0.3,0-0.5,0-0.8-0.1c-0.2-0.1-0.4-0.2-0.6-0.3c-0.2-0.1-0.3-0.3-0.4-0.5
					c-0.1-0.2-0.1-0.4-0.1-0.6c0-0.3,0.1-0.6,0.2-0.8c0.2-0.2,0.4-0.4,0.6-0.5c-0.2-0.1-0.4-0.3-0.5-0.5
					C75.8,58.3,75.8,58.1,75.8,57.9z M76.6,60.2c0,0.2,0.1,0.4,0.2,0.5c0.2,0.1,0.4,0.2,0.6,0.2c0.2,0,0.5-0.1,0.6-0.2
					c0.2-0.1,0.2-0.3,0.2-0.5c0-0.2-0.1-0.4-0.2-0.5c-0.2-0.1-0.4-0.2-0.6-0.2c-0.2,0-0.5,0.1-0.6,0.2C76.7,59.8,76.6,60,76.6,60.2z
					 M76.8,57.9c0,0.2,0.1,0.3,0.2,0.4c0.1,0.1,0.3,0.2,0.5,0.2c0.2,0,0.4-0.1,0.5-0.2c0.1-0.1,0.2-0.3,0.2-0.4
					c0-0.2-0.1-0.3-0.2-0.4c-0.1-0.1-0.3-0.2-0.5-0.2c-0.2,0-0.4,0.1-0.5,0.2C76.8,57.6,76.8,57.7,76.8,57.9z"/>
			</g>
		</g>
		<g>
			<path class="st5" d="M80.5,58.2h-0.2v-1.4h-0.5v-0.1H81v0.1h-0.5V58.2z"/>
			<path class="st5" d="M81.2,56.7h0.2l0.4,1.3l0.5-1.3h0.2v1.5h-0.2v-1.3L82,58.2h-0.2l-0.4-1.3v1.3h-0.2V56.7z"/>
		</g>
	</g>
</g>
<g>
</g>
<g>
</g>
<g>
</g>
<g>
</g>
<g>
</g>
<g>
</g>
</svg>
