<?xml version="1.0" encoding="utf-8"?>
<!-- Generator: Adobe Illustrator 22.0.0, SVG Export Plug-In . SVG Version: 6.00 Build 0)  -->
<svg version="1.1" id="Calque_2" xmlns="http://www.w3.org/2000/svg" xmlns:xlink="http://www.w3.org/1999/xlink" x="0px" y="0px"
	 viewBox="0 0 2048 1050" style="enable-background:new 0 0 2048 1050;" xml:space="preserve">
<style type="text/css">
	.st0{fill:#E5FFFB;}
	
		.st1{clip-path:url(#SVGID_2_);fill:none;stroke:#CCDEDC;stroke-width:15;stroke-linecap:round;stroke-linejoin:round;stroke-miterlimit:10;}
	.st2{fill:#526652;}
	.st3{fill:#7A997A;}
	.st4{fill:#4F362E;}
	.st5{fill:#FFFFFF;}
</style>
<path class="st0" d="M339,655.2L339,655.2c0,23.2,18.8,42,42,42h95c9.9,0,17.9,8,17.9,17.9v0c0,9.9-8,17.9-17.9,17.9h-42.1
	c-15.4,0-27.9,12.5-27.9,27.9v0c0,15.4,12.5,27.9,27.9,27.9h1099.8c20.7,0,37.4-16.7,37.4-37.4v0c0-20.7-16.7-37.4-37.4-37.4H1506
	c-8.1,0-14.7-6.6-14.7-14.7v0c0-8.1,6.6-14.7,14.7-14.7h89.6c19.7,0,35.7-16,35.7-35.7v0c0-19.7-16-35.7-35.7-35.7l-1214.6,0
	C357.8,613.2,339,632,339,655.2z"/>
<g>
	<defs>
		<path id="SVGID_1_" d="M339,655.2L339,655.2c0,23.2,18.8,42,42,42h95c9.9,0,17.9,8,17.9,17.9v0c0,9.9-8,17.9-17.9,17.9h-42.1
			c-15.4,0-27.9,12.5-27.9,27.9v0c0,15.4,12.5,27.9,27.9,27.9h1099.8c20.7,0,37.4-16.7,37.4-37.4v0c0-20.7-16.7-37.4-37.4-37.4H1506
			c-8.1,0-14.7-6.6-14.7-14.7v0c0-8.1,6.6-14.7,14.7-14.7h89.6c19.7,0,35.7-16,35.7-35.7v0c0-19.7-16-35.7-35.7-35.7l-1214.6,0
			C357.8,613.2,339,632,339,655.2z"/>
	</defs>
	<clipPath id="SVGID_2_">
		<use xlink:href="#SVGID_1_"  style="overflow:visible;"/>
	</clipPath>
	<path class="st1" d="M476,704.8h368.7c17.3,0,33.9,6.9,46.1,19.1l0,0c12.2,12.2,28.8,19.1,46.1,19.1h85.4
		c12.9,0,25.3,5.1,34.4,14.3v0c9.1,9.1,21.5,14.3,34.4,14.3h486.8"/>
</g>
<g>
	<polygon class="st2" points="861.4,589.1 844.3,638.1 878.6,638.1 	"/>
	<polygon class="st3" points="853.7,623 851.9,628.3 855.6,628.3 	"/>
	<polygon class="st3" points="868.1,627.8 866.2,633.1 869.9,633.1 	"/>
	<polygon class="st3" points="864.3,613 862.5,618.3 866.2,618.3 	"/>
	<rect x="858.6" y="638.1" class="st4" width="5.7" height="7.2"/>
	<polygon class="st5" points="854.7,608.2 861.4,589.1 867.4,606.1 863.4,606.1 861.4,611.7 860.2,608.2 860.2,608.2 	"/>
</g>
<g>
	<polygon class="st2" points="539.7,705.9 522.6,754.9 556.9,754.9 	"/>
	<polygon class="st3" points="533.9,732.1 532,737.4 535.8,737.4 	"/>
	<polygon class="st5" points="544.3,719.2 539.7,705.9 535.6,717.7 538.3,717.7 539.7,721.6 540.6,719.2 540.6,719.2 	"/>
	<polygon class="st3" points="541.2,738.9 539.3,744.2 543,744.2 	"/>
	<polygon class="st3" points="544.9,724.3 543,729.6 546.7,729.6 	"/>
	<rect x="536.9" y="754.9" class="st4" width="5.7" height="7.2"/>
</g>
<g>
	<polygon class="st2" points="1524.8,589.8 1507.7,638.8 1542,638.8 	"/>
	<polygon class="st3" points="1531.9,623.4 1530,628.7 1533.7,628.7 	"/>
	<polygon class="st5" points="1533.2,613.6 1524.8,589.8 1517.4,611 1522.4,611 1524.8,618.1 1526.4,613.6 1526.4,613.6 	"/>
	<polygon class="st3" points="1515.9,630.1 1514,635.4 1517.8,635.4 	"/>
	<polygon class="st3" points="1520.3,618.1 1518.5,623.4 1522.2,623.4 	"/>
	<rect x="1522" y="638.8" class="st4" width="5.7" height="7.2"/>
</g>
<path class="st5" d="M662.5,716.6h16.9c3,0,5.4-2.4,5.4-5.4l0,0c0-3,2.4-5.4,5.4-5.4h20.1c3,0,5.4,2.4,5.4,5.4l0,0
	c0,3,2.4,5.4,5.4,5.4h16.4c2.1,0,3.7,1.7,3.7,3.7l0,0c0,2.1,1.7,3.7,3.7,3.7h18.9c3.6,0,6.6,3,6.6,6.6l0,0c0,0.7-0.6,1.3-1.3,1.3
	H649.7c-0.7,0-1.3-0.6-1.3-1.3l0,0C648.4,722.9,654.7,716.6,662.5,716.6z"/>
<path class="st5" d="M1072.3,723.6h110.6c0.7,0,1.2-0.5,1.2-1.2l0,0c0-6.1-4.9-11-11-11h-12c-2.8,0-5-2.3-5-5l0,0c0-2.8-2.3-5-5-5
	h-39.8c-1.5,0-2.7,1.2-2.7,2.7l0,0c0,1.5-1.2,2.7-2.7,2.7h-17.5c-2.1,0-3.8,1.7-3.8,3.8l0,0c0,2.1-1.7,3.8-3.8,3.8h-1.6
	c-4.5,0-8.1,3.6-8.1,8.1l0,0C1071.1,723.1,1071.7,723.6,1072.3,723.6z"/>
<path class="st5" d="M932.6,669.8L932.6,669.8c0,0.7,0.5,1.2,1.2,1.2h68.7c0.7,0,1.2-0.5,1.2-1.2l0,0c0-3.8-3.1-6.9-6.9-6.9h-14.9
	c-2.8,0-5.1-2.3-5.1-5.1l0,0c0-2.8-2.3-5.1-5.1-5.1h-19.5c-2.8,0-5.1,2.3-5.1,5.1l0,0c0,2.8-2.3,5.1-5.1,5.1h-2.4
	C935.7,662.9,932.6,666,932.6,669.8z"/>
</svg>
