<?xml version="1.0" encoding="utf-8"?>
<!-- Generator: Adobe Illustrator 21.1.0, SVG Export Plug-In . SVG Version: 6.00 Build 0)  -->
<svg version="1.1" xmlns="http://www.w3.org/2000/svg" xmlns:xlink="http://www.w3.org/1999/xlink" x="0px" y="0px"
	 viewBox="0 0 2048 1050" style="enable-background:new 0 0 2048 1050;" xml:space="preserve">
<style type="text/css">
	.st0{fill:#C6EEE9;}
</style>
<g id="Landscape">
	<path class="st0" d="M718.9,238.4h39.7c4.8,0,8.6-3.9,8.6-8.6v0c0-14.3,11.6-25.9,25.9-25.9h30.3c4.8,0,8.6,3.9,8.6,8.6v0
		c0,4.8-3.9,8.6-8.6,8.6h-22.2c-4.8,0-8.6,3.9-8.6,8.6v0c0,4.8,3.9,8.6,8.6,8.6h33.6c9.3,0,16.8,7.5,16.8,16.8v0
		c0,9.3-7.5,16.8-16.8,16.8H718.9c-9.3,0-16.8-7.5-16.8-16.8v0C702.1,245.9,709.6,238.4,718.9,238.4z"/>
</g>
<g id="Logo">
	<g>
	</g>
	<g>
	</g>
	<g>
	</g>
	<g>
	</g>
	<g>
	</g>
	<g>
	</g>
</g>
</svg>
