<?xml version="1.0" encoding="utf-8"?>
<!-- Generator: Adobe Illustrator 21.1.0, SVG Export Plug-In . SVG Version: 6.00 Build 0)  -->
<svg version="1.1" xmlns="http://www.w3.org/2000/svg" xmlns:xlink="http://www.w3.org/1999/xlink" x="0px" y="0px"
	 viewBox="0 0 2048 1050" style="enable-background:new 0 0 2048 1050;" xml:space="preserve">
<style type="text/css">
	.st0{fill:#C6EEE9;}
</style>
<g id="Landscape">
	<path class="st0" d="M1497.1,216.6h-28.8c-3.3,0-6,2.7-6,6v0c0,3.3,2.7,6,6,6h4c3.6,0,6.5,2.9,6.5,6.5v0c0,3.6-2.9,6.5-6.5,6.5
		h-6.2c-10.5,0-19-8.5-19-19v0c0-3.3-2.7-6-6-6h-20.5c-5.9,0-10.6-4.8-10.6-10.6v0c0-5.9,4.8-10.6,10.6-10.6h76.6
		c5.9,0,10.6,4.8,10.6,10.6v0C1507.7,211.8,1502.9,216.6,1497.1,216.6z"/>
</g>
<g id="Logo">
	<g>
	</g>
	<g>
	</g>
	<g>
	</g>
	<g>
	</g>
	<g>
	</g>
	<g>
	</g>
</g>
</svg>
