<?xml version="1.0" encoding="utf-8"?>
<!-- Generator: Adobe Illustrator 21.1.0, SVG Export Plug-In . SVG Version: 6.00 Build 0)  -->
<svg version="1.1" xmlns="http://www.w3.org/2000/svg" xmlns:xlink="http://www.w3.org/1999/xlink" x="0px" y="0px"
	 viewBox="0 0 2048 1050" style="enable-background:new 0 0 2048 1050;" xml:space="preserve">
<style type="text/css">
	.st0{fill:#D7FAD7;}
	.st1{display:none;fill:#D7FAD7;}
	.st2{fill:#B8E6B8;}
</style>
<g id="Landscape">
</g>
<g id="Logo">
	<g>
		<path class="st0" d="M648.4,519.7c-2.3,1.4-5.6,2.1-9.8,2.1c-6.6,0-11.7-2.5-15.1-7.5c-3.4-5-5.2-11.6-5.2-19.8
			c0-8.2,1.7-14.8,5.2-19.8c3.4-5,8.7-7.5,15.8-7.5c6.1,0,10.8,2.4,13.9,7.3l36.8,0c-3.2-11-9.1-19.6-17.7-25.7
			c-9.2-6.6-20.5-9.9-33.8-9.9c-16,0-29.1,5-39.1,15.1c-10.1,10.1-15.1,23.6-15.1,40.5c0,16.9,5,30.4,15.1,40.6
			c10.1,10.1,23.1,15.2,39.1,15.2c13,0,24.2-3.5,33.6-10.3c8.9-6.6,15-15.2,18.1-26.2l-36.5,0C652.1,516.6,650.3,518.5,648.4,519.7z
			"/>
		<path class="st0" d="M732.5,460.4l0-20.3l-33.4,0l0,108.9l33.4,0l0-49.8c0-9.1,1.9-15.5,5.8-19.1c3.8-3.6,9.6-5.5,17.3-5.5l8.2,0
			l0-35.7C750.7,438.9,740.3,446.1,732.5,460.4z"/>
		<path class="st0" d="M1117,430.5c4.6,0,8.6-1.6,11.8-4.8c3.2-3.2,4.8-7.2,4.8-11.9c0-4.7-1.6-8.7-4.8-11.9
			c-3.2-3.2-7.1-4.8-11.8-4.8c-4.6,0-8.6,1.6-11.8,4.8c-3.2,3.2-4.8,7.2-4.8,11.9c0,4.7,1.6,8.7,4.8,11.9
			C1108.4,428.9,1112.3,430.5,1117,430.5z"/>
		<path class="st0" d="M1052.1,440.1l0-29.2l-33.4,0l0,29.2l-10.2,0l0,27.7l10.2,0l0,45.3c0,13.1,3.3,22.4,10.1,27.8
			c6.7,5.4,16.2,8.1,28.4,8.1l33.1,0l0-28.3l-28,0c-6.8,0-10.2-2.5-10.2-7.6l0-45.3l48.3,0l0,81.2l33.4,0l0-108.9L1052.1,440.1z"/>
		<polygon class="st1" points="1225.4,440.1 1200.6,521.1 1175.8,440.1 1140.3,440.1 1178.9,549 1222.2,549 1260.9,440.1 		"/>
		<polygon class="st0" points="1200.6,521.1 1175.8,440.1 1140.3,440.1 1178.9,549 1192,549 		"/>
		<polygon class="st2" points="1225.4,440.1 1192,549 1222.2,549 1260.9,440.1 		"/>
		<path class="st2" d="M1459.1,500.3c-3.1-4.2-6.1-7.1-11.4-9.1c-8.8-3.8-18.2-6-29.5-8.4c-10.6-2.2-16-5.1-16-10
			c0-5.3,4.4-8.6,13.1-8.6c4.4,0,7.7,1.2,10,2.7c2.2,1.4,3.5,3.9,3.9,7.7l34.2,0c-0.5-11.1-5.1-19.8-13.7-26.2
			c-8.6-6.4-19.9-9.6-33.9-9.6c-14,0-25.1,3.3-33.3,9.8c-8.2,6.5-12.3,14.6-12.3,24.2c0,7,2.1,12.7,6.3,17.1
			c4.2,4.4,9.4,7.4,15.4,9.2c6.1,1.8,12.1,3.3,18.1,4.4c7.4,1.4,21.7,3,21.7,11.1c0,2.9-1.3,5.2-3.8,7c-2.5,1.8-5.8,2.7-9.7,2.7
			c-9.1,0-13.1-3.9-14.1-10.5l-34.2,0c0,12.9,5.6,21.4,14.4,27.4c8.8,6.1,19.9,9.1,33.2,9.1c13.3,0,24.3-3.2,33-9.7
			c8.7-6.4,13.1-14.7,13.1-24.9C1463.7,509.7,1462.1,504.5,1459.1,500.3z"/>
		<path class="st0" d="M861.1,453.7c-10.5-9.9-23.8-14.8-39.8-14.8c-16,0-29.1,5-39.1,15C772,464,767,477.4,767,494.3
			c0,16.9,5.1,30.5,15.2,40.7c10.2,10.2,23.2,15.3,39,15.3c12.9,0,24-3.3,33.4-10.1c9.4-6.7,15.6-15.5,18.7-26.4l-34.1,0
			c-1,1.6-2.2,3-3.7,4.2c-3.7,3.2-8.2,4.9-13.7,4.9c-5.4,0-10.1-1.6-14-4.9c-3.9-3.2-6.2-7.4-6.7-12.6c0,0,0,0,0,0l75,0
			c0.5-3.3,0.8-6.8,0.8-10.5C876.9,477.4,871.6,463.6,861.1,453.7z M801.3,484.6c0.9-5.5,3.2-10,6.9-13.4c3.7-3.5,8.2-5.2,13.5-5.2
			c5.4,0,10,1.7,13.9,5.2c3.9,3.5,6.1,7.9,6.7,13.4L801.3,484.6z"/>
		<path class="st2" d="M1348.6,453.7c-10.5-9.9-23.8-14.8-39.8-14.8c-16,0-29.1,5-39.1,15c-10.1,10-15.1,23.5-15.1,40.4
			c0,16.9,5.1,30.5,15.2,40.7c10.2,10.2,23.2,15.3,39,15.3c12.9,0,24-3.3,33.4-10.1c9.4-6.7,15.6-15.5,18.7-26.4l-34.1,0
			c-1,1.6-2.2,3-3.7,4.2c-3.7,3.2-8.2,4.9-13.7,4.9c-5.4,0-10.1-1.6-14-4.9c-3.9-3.2-6.2-7.4-6.7-12.6c0,0,0,0,0,0l75,0
			c0.5-3.3,0.8-6.8,0.8-10.5C1364.4,477.4,1359.1,463.6,1348.6,453.7z M1288.9,484.6c0.9-5.5,3.2-10,6.9-13.4
			c3.7-3.5,8.2-5.2,13.5-5.2c5.4,0,10,1.7,13.9,5.2c3.9,3.5,6.1,7.9,6.7,13.4L1288.9,484.6z"/>
		<path class="st0" d="M965.6,440.1l0,12.3c-7.3-9-17.5-13.5-30.5-13.5c-13.9,0-25.7,5.2-35.3,15.7c-9.7,10.5-14.5,23.9-14.5,40.1
			c0,16.3,4.8,29.6,14.5,40c9.7,10.4,21.3,15.6,34.8,15.6c12.8,0,23.1-5.1,31-15.2l0,13.8l33.4,0l0-108.9L965.6,440.1z M940.4,521.3
			c-6,0-11.4-2.3-16.1-6.9c-4.7-4.6-7-11.2-7-19.7c0-8.6,2.3-15.2,7-19.8c4.7-4.7,10-7,16.1-7c6,0,23.1,0.7,23.1,26.6
			C963.4,520.4,946.4,521.3,940.4,521.3z"/>
	</g>
	<g>
	</g>
	<g>
	</g>
	<g>
	</g>
	<g>
	</g>
	<g>
	</g>
	<g>
	</g>
</g>
</svg>
