<?xml version="1.0" encoding="utf-8"?>
<!-- Generator: Adobe Illustrator 21.1.0, SVG Export Plug-In . SVG Version: 6.00 Build 0)  -->
<svg version="1.1" xmlns="http://www.w3.org/2000/svg" xmlns:xlink="http://www.w3.org/1999/xlink" x="0px" y="0px"
	 viewBox="0 0 2048 1050" style="enable-background:new 0 0 2048 1050;" xml:space="preserve">
<style type="text/css">
	.st0{fill:#C6EEE9;}
</style>
<g id="Landscape">
	<path class="st0" d="M1062.9,218.6h91.1c5.5,0,9.9-4.4,9.9-9.9v0c0-5.5-4.4-9.9-9.9-9.9h-40.9c-7.4,0-13.4-6-13.4-13.4v0
		c0-7.4,6-13.4,13.4-13.4h101c7.4,0,13.4,6,13.4,13.4v0c0,7.4-6,13.4-13.4,13.4h-14.3c-5.5,0-9.9,4.4-9.9,9.9v0
		c0,5.5,4.4,9.9,9.9,9.9h53.7c7.7,0,13.9,6.2,13.9,13.9v0c0,7.7-6.2,13.9-13.9,13.9h-190.6c-7.7,0-13.9-6.2-13.9-13.9v0
		C1049,224.8,1055.2,218.6,1062.9,218.6z"/>
</g>
<g id="Logo">
	<g>
	</g>
	<g>
	</g>
	<g>
	</g>
	<g>
	</g>
	<g>
	</g>
	<g>
	</g>
</g>
</svg>
